<svg xmlns="http://www.w3.org/2000/svg" width="805" height="600"><rect width="805" height="600" x="0" y="0" fill="#fbfbce" id="background"/><g transform="translate(402.5,300)" id="chord_diagram"><g><g><path fill="#ff7f0e" d="M1.5308084989341916e-14,-250A250,250,0,0,1,89.24764872103762,-233.5269945804259L85.67774277219611,-224.18591479720888A240,240,0,0,0,1.469576158976824e-14,-240Z"/></g><g><path fill="#cccccc" d="M98.89766421881045,-229.60673337701448A250,250,0,0,1,119.4111894920671,-219.63826584657247L114.63474191238441,-210.85273521270958A240,240,0,0,0,94.94175765005804,-220.4224640419339Z"/></g><g><path fill="#1f77b4" d="M128.45649555056548,-214.47360851831527A250,250,0,0,1,181.6605569591833,-171.75401609650737L174.394134680816,-164.88385545264708A240,240,0,0,0,123.31823572854287,-205.89466417758265Z"/></g><g><path fill="#cccccc" d="M188.6572351108148,-164.03794573312223A250,250,0,0,1,241.63584426144448,-64.1258042293347L231.9704104909867,-61.56077206016131A240,240,0,0,0,181.1109457063822,-157.47642790379734Z"/></g><g><path fill="#2ca02c" d="M244.09725672390297,-54.00490033196059A250,250,0,0,1,228.1608410218067,102.18919034918444L219.03440738093443,98.10162273521706A240,240,0,0,0,234.33336645494686,-51.84470431868217Z"/></g><g><path fill="#d62728" d="M223.70616237666863,111.6044484539195A250,250,0,0,1,92.25394194254436,232.35578365098135L88.56378426484258,223.0615523049421A240,240,0,0,0,214.7579158816019,107.14027051576272Z"/></g><g><path fill="#9467bd" d="M82.49518210964519,235.99691720167974A250,250,0,0,1,-116.56675752747297,221.16100705036436L-111.90408722637406,212.3145667683498A240,240,0,0,0,79.19537482525938,226.55704051361255Z"/></g><g><path fill="#cccccc" d="M-125.67796154682372,216.11351179746973A250,250,0,0,1,-179.42889955664933,174.0840888877839L-172.25174357438337,167.12072533227254A240,240,0,0,0,-120.65084308495078,207.46897132557095Z"/></g><g><path fill="#cccccc" d="M-186.52457290725857,166.45895500622603A250,250,0,0,1,-240.78816186845722,67.23883627792533L-231.15663539371894,64.54928282680832A240,240,0,0,0,-179.06358999096824,159.800596805977Z"/></g><g><path fill="#cccccc" d="M-243.3799822000911,57.15054036737835A250,250,0,0,1,-243.6614549167246,-55.93831770678285L-233.91499672005563,-53.70078499851154A240,240,0,0,0,-233.64478291208746,54.86451875268322Z"/></g><g><path fill="#cccccc" d="M-241.11988495032296,-66.03939037834179A250,250,0,0,1,-225.1278168367685,-108.7081693632563L-216.12270416329775,-104.35984258872605A240,240,0,0,0,-231.47508955231004,-63.39781476320812Z"/></g><g><path fill="#cccccc" d="M-220.404225106774,-117.9914300069395A250,250,0,0,1,-180.29324493282104,-173.1887578094889L-173.0815151355082,-166.26120749710933A240,240,0,0,0,-211.58805610250303,-113.27177280666191Z"/></g><g><path fill="#cccccc" d="M-172.9226526180771,-180.54848714826673A250,250,0,0,1,-117.66622465428529,-220.57801244822036L-112.95957566811389,-211.75489195029155A240,240,0,0,0,-166.005746513354,-173.32654766233608Z"/></g><g><path fill="#cccccc" d="M-108.3760072219043,-225.2879070403863A250,250,0,0,1,-65.6836877410241,-241.2170250308623L-63.056340231383146,-231.56834402962778A240,240,0,0,0,-104.04096693302813,-216.27639075877087Z"/></g><g><path fill="#cccccc" d="M-55.57887746214179,-243.74369403134972A250,250,0,0,1,-10.413652846506002,-249.7830175059795L-9.997106732645761,-239.79169680574032A240,240,0,0,0,-53.35572236365612,-233.99394627009573Z"/></g></g><g fill-opacity="0.5"><path fill="#ff7f0e" d="M0.4979163064840103,-238.99948133699314A239,239,0,0,1,21.285236489052487,-238.05028609015596Q0,0,85.4631850866609,-197.28417066466113L102.71207340483365,-211.36515790659553L102.29988182885494,-189.1024436061108Q0,0,0.4979163064840103,-238.99948133699314Z"/><path fill="#ff7f0e" d="M22.276925043674673,-237.95953145566264A239,239,0,0,1,42.891236496527476,-235.11984567832414Q0,0,202.06959035682425,-73.43623528630293L224.15169366382926,-70.57632908870252L207.6914831125304,-55.58100253249758Q0,0,22.276925043674673,-237.95953145566264Z"/><path fill="#ff7f0e" d="M43.870527366285295,-234.93909174210242A239,239,0,0,1,64.14026127693965,-230.23254957395994Q0,0,-201.10504940626296,76.03787939773528L-223.22222161701396,73.46318653832479L-206.95690032488787,58.25668552118657Q0,0,43.870527366285295,-234.93909174210242Z"/><path fill="#ff7f0e" d="M65.09900401877883,-229.96330071505542A239,239,0,0,1,84.85545942507342,-223.42907377008868Q0,0,-213.00055171967514,-29.253460771573426L-231.20187257119684,-42.079616438034L-209.64861922516198,-47.670289038173834Q0,0,65.09900401877883,-229.96330071505542Z"/><path fill="#1f77b4" d="M123.23130287177862,-204.780482450169A239,239,0,0,1,140.57690797569506,-193.28510792089742Q0,0,194.53612864184055,-91.5461340147429L216.78697538520007,-90.71056886238041L201.76185285473437,-74.27755201017679Q0,0,123.23130287177862,-204.780482450169Z"/><path fill="#1f77b4" d="M141.38103997783162,-192.6976946794818A239,239,0,0,1,157.6068387018,-179.6693752269006Q0,0,-193.33850218733406,94.04904875626454L-215.59827914455903,93.50070603960594L-200.7864801244809,76.875154628927Q0,0,141.38103997783162,-192.6976946794818Z"/><path fill="#1f77b4" d="M158.3540908194879,-179.01112233806418A239,239,0,0,1,173.3250390692622,-164.55829007266308Q0,0,-214.7801684975311,-9.72004218983385L-234.07465070941458,-20.83405614050116L-213.12059182642017,-28.365707104819567Q0,0,158.3540908194879,-179.01112233806418Z"/><path fill="#2ca02c" d="M233.46403069320402,-51.14241265801502A239,239,0,0,1,237.0277154883234,-30.640856554385373Q0,0,185.38358143606075,-108.89411248520021L207.61798224569932,-110.08984262058188L194.15299884125918,-92.35590420187556Q0,0,233.46403069320402,-51.14241265801502Z"/><path fill="#2ca02c" d="M237.15332782527503,-29.652977951592444A239,239,0,0,1,238.8337851341434,-8.911962662501367Q0,0,-140.36236271697192,162.86008452812865L-161.0232606638451,171.16223159676142L-153.99661831356067,150.0334680929142Q0,0,237.15332782527503,-29.652977951592444Z"/><path fill="#2ca02c" d="M238.86884499751744,-7.9167474098897745A239,239,0,0,1,238.6520887083226,12.891103721361947Q0,0,-183.96283708429183,111.2774665954357L-206.17995509352218,112.76003776885311L-192.94495400155358,94.85380712094997Q0,0,238.86884499751744,-7.9167474098897745Z"/><path fill="#2ca02c" d="M238.59630430185217,13.885372645268A239,239,0,0,1,236.48413843406001,34.586880013963956Q0,0,-214.7722126689365,9.894274369003131L-234.99927210485825,0.5849018608259218L-214.81880414764663,-8.82504303530776Q0,0,238.59630430185217,13.885372645268Z"/><path fill="#2ca02c" d="M236.33797404026046,35.57192750674578A239,239,0,0,1,232.34797773011968,55.99479658614552Q0,0,-201.16666718120968,-75.87471262024269L-216.0610425672224,-92.42632679472294L-193.80427098190157,-93.0854690549157Q0,0,236.33797404026046,35.57192750674578Z"/><path fill="#2ca02c" d="M232.1126498461575,56.96242429352085A239,239,0,0,1,226.27803103904654,76.9366796079236Q0,0,-167.70079956107406,-134.54159887029905L-176.72519937917787,-154.89739799102443L-155.3621504575056,-148.61898332722976Q0,0,232.1126498461575,56.96242429352085Z"/><path fill="#2ca02c" d="M225.95549825207547,77.87883415701798A239,239,0,0,1,218.32481731938083,97.23823395382597Q0,0,-117.68518367011787,-179.93109110026157L-119.94902453802867,-202.08223947783088L-101.58793558642358,-189.48586053658107Q0,0,225.95549825207547,77.87883415701798Z"/><path fill="#d62728" d="M213.64034842060647,107.13916896598496A239,239,0,0,1,203.51115550129964,125.31643781454144Q0,0,174.68812356874747,-125.3357869246849L196.72102595082364,-128.55286052381473L184.92824805008476,-109.66559657944842Q0,0,213.64034842060647,107.13916896598496Z"/><path fill="#d62728" d="M202.98723860059138,126.16331069414193A239,239,0,0,1,191.24362233036354,143.34181845491315Q0,0,-124.93609823686748,174.97420197659937L-144.7544064971151,185.12471958025478L-139.68256257340613,163.44351229989667Q0,0,202.98723860059138,126.16331069414193Z"/><path fill="#d62728" d="M190.6447063831559,144.1374202907776A239,239,0,0,1,177.38440654353425,160.1741936617699Q0,0,-173.05608589226281,127.57974422160343L-195.04563630096607,131.0808901402156L-183.49758541775677,112.04301024987261Q0,0,190.6447063831559,144.1374202907776Z"/><path fill="#d62728" d="M176.71547620808636,160.91190281812365A239,239,0,0,1,162.04885563616355,175.6734709254924Q0,0,-212.97675044866975,29.42624285098339L-233.96804131763034,21.99899184034639L-214.72912230559422,10.789070111421086Q0,0,176.71547620808636,160.91190281812365Z"/><path fill="#d62728" d="M161.31547828655673,176.347147595813A239,239,0,0,1,145.3646043470572,189.71065284538852Q0,0,-179.2643008781103,-118.69840112942691L-190.10626064159945,-138.14705811152209L-168.25993220028963,-133.84167966651472Q0,0,161.31547828655673,176.347147595813Z"/><path fill="#d62728" d="M144.57288373704822,190.3146901527939A239,239,0,0,1,127.47051237994013,202.16891074939176Q0,0,-133.59336535941742,-168.457153994555L-137.8665176918403,-190.30980873177685L-118.43387280909909,-179.43917568757985Q0,0,144.57288373704822,190.3146901527939Z"/><path fill="#d62728" d="M126.62703784263316,202.69828141156094A239,239,0,0,1,108.51550870177178,212.94455703585308Q0,0,-74.73861334648691,-201.59151687272043L-72.02125724457129,-223.69161473982723L-56.92002906113122,-207.32850814994057Q0,0,126.62703784263316,202.69828141156094Z"/><path fill="#d62728" d="M107.62730030791025,213.39485520609654A239,239,0,0,1,88.65735203658748,221.9479081448181Q0,0,-28.051341960709944,-213.16219696325922L-20.48879377856278,-234.1051245263536L-9.403249595431749,-214.79427109922185Q0,0,107.62730030791025,213.39485520609654Z"/><path fill="#9467bd" d="M78.39519609460531,225.77686601883812A239,239,0,0,1,58.45900603574191,231.74025246666383Q0,0,162.5387712075982,-140.73431654832467L184.18679969958993,-145.94595854775542L174.16437624654822,-126.06256401743855Q0,0,78.39519609460531,225.77686601883812Z"/><path fill="#9467bd" d="M57.49291698848252,231.98181932245348A239,239,0,0,1,37.096219594705566,236.10351647483225Q0,0,-108.47001547033868,185.63204395756807L-127.28079020766504,197.54645135793345L-124.20595665833682,175.49324867523353Q0,0,57.49291698848252,231.98181932245348Z"/><path fill="#9467bd" d="M36.1121357739366,236.25603410250662A239,239,0,0,1,15.424688699214942,238.5017378941552Q0,0,-160.70902333124386,142.82020102183625L-182.28799148674642,148.3107823448041L-172.52300294202016,128.29970169828024Q0,0,36.1121357739366,236.25603410250662Z"/><path fill="#9467bd" d="M14.430800438768262,238.56393691984638A239,239,0,0,1,-6.3752188111867625,238.91495680494657Q0,0,-209.40872511153745,48.71330256881122L-230.9895410763835,43.229988588036264L-212.8522927043898,30.313387974371334Q0,0,14.430800438768262,238.56393691984638Z"/><path fill="#9467bd" d="M-7.370639577078701,238.8863195585398A239,239,0,0,1,-28.12206664393421,237.3397340684322Q0,0,-207.2443305618736,-57.22575862285152L-223.58514635895358,-72.35110453645684L-201.48106466645376,-75.03586196527814Q0,0,-7.370639577078701,238.8863195585398Z"/><path fill="#9467bd" d="M-29.110735226301063,237.22049889203123A239,239,0,0,1,-49.634860111601625,233.78917995001765Q0,0,-189.33582108811106,-101.86730021400781L-201.90510532315648,-120.2469477552137L-179.7573200069458,-117.95043833712734Q0,0,-29.110735226301063,237.22049889203123Z"/><path fill="#9467bd" d="M-50.60854801855301,233.5803392142708A239,239,0,0,1,-70.73455251467274,228.29284500515783Q0,0,-148.38967605061418,-155.58118151496916L-154.63657525093828,-176.95346731460478L-134.2941084738031,-167.89905428329965Q0,0,-50.60854801855301,233.5803392142708Z"/><path fill="#9467bd" d="M-71.68515593549897,227.99613684995455A239,239,0,0,1,-91.24553531159499,220.89647413596367Q0,0,-92.79952340519941,-193.94135313482747L-92.10755506440307,-216.19712833443916L-75.57792679792534,-201.27835696101914Q0,0,-71.68515593549897,227.99613684995455Z"/><path fill="#9467bd" d="M-92.16514256317116,220.51436800424216A239,239,0,0,1,-110.99709967372918,211.66162586548427Q0,0,-47.36102375363881,-209.71870071361604L-41.73856806490835,-231.2636848618715L-28.939271710559172,-213.04346634633606Q0,0,-92.16514256317116,220.51436800424216Z"/></g><g><g id="2014" transform="rotate(-79.54225361921537) translate(250,0)"><text x="8" dy="0.35em" style="font-family: Arial, sans-serif; font-size: 10px; fill: black; font-weight: bold;">2014 (4)</text></g><g id="Animation" transform="rotate(-64.08274649685615) translate(250,0)"><text x="8" dy="0.35em" style="font-family: Arial, sans-serif; font-size: 10px; fill: black; font-weight: bold;">Animation (1)</text></g><g id="2013" transform="rotate(-51.237675969693086) translate(250,0)"><text x="8" dy="0.35em" style="font-family: Arial, sans-serif; font-size: 10px; fill: black; font-weight: bold;">2013 (3)</text></g><g id="Comedy" transform="rotate(-27.934859061745392) translate(250,0)"><text x="8" dy="0.35em" style="font-family: Arial, sans-serif; font-size: 10px; fill: black; font-weight: bold;">Comedy (5)</text></g><g id="2015" transform="rotate(5.825704226986943) translate(250,0)"><text x="8" dy="0.35em" style="font-family: Arial, sans-serif; font-size: 10px; fill: black; font-weight: bold;">2015 (7)</text></g><g id="2016" transform="rotate(47.42957730130772) translate(250,0)"><text x="8" dy="0.35em" style="font-family: Arial, sans-serif; font-size: 10px; fill: black; font-weight: bold;">2016 (8)</text></g><g id="2017" transform="rotate(94.26232356602074) translate(250,0)"><text x="8" dy="0.35em" transform="rotate(180) translate(-16)" text-anchor="end" style="font-family: Arial, sans-serif; font-size: 10px; fill: black; font-weight: bold;">2017 (9)</text></g><g id="Docu-Series" transform="rotate(128.02288685475298) translate(250,0)"><text x="8" dy="0.35em" transform="rotate(180) translate(-16)" text-anchor="end" style="font-family: Arial, sans-serif; font-size: 10px; fill: black; font-weight: bold;">Docu-Series (3)</text></g><g id="Drama" transform="rotate(151.32570376270067) translate(250,0)"><text x="8" dy="0.35em" transform="rotate(180) translate(-16)" text-anchor="end" style="font-family: Arial, sans-serif; font-size: 10px; fill: black; font-weight: bold;">Drama (5)</text></g><g id="Family Animation" transform="rotate(179.85739386104063) translate(250,0)"><text x="8" dy="0.35em" transform="rotate(180) translate(-16)" text-anchor="end" style="font-family: Arial, sans-serif; font-size: 10px; fill: black; font-weight: bold;">Family Animation (5)</text></g><g id="Family Live Action" transform="rotate(200.54577417379215) translate(250,0)"><text x="8" dy="0.35em" transform="rotate(180) translate(-16)" text-anchor="end" style="font-family: Arial, sans-serif; font-size: 10px; fill: black; font-weight: bold;">Family Live Action (2)</text></g><g id="Foreign Language" transform="rotate(216.0052812961514) translate(250,0)"><text x="8" dy="0.35em" transform="rotate(180) translate(-16)" text-anchor="end" style="font-family: Arial, sans-serif; font-size: 10px; fill: black; font-weight: bold;">Foreign Language (3)</text></g><g id="Marvel" transform="rotate(234.07922501370672) translate(250,0)"><text x="8" dy="0.35em" transform="rotate(180) translate(-16)" text-anchor="end" style="font-family: Arial, sans-serif; font-size: 10px; fill: black; font-weight: bold;">Marvel (3)</text></g><g id="Reality" transform="rotate(249.53873213606596) translate(250,0)"><text x="8" dy="0.35em" transform="rotate(180) translate(-16)" text-anchor="end" style="font-family: Arial, sans-serif; font-size: 10px; fill: black; font-weight: bold;">Reality (2)</text></g><g id="Talk Show" transform="rotate(262.38380266322895) translate(250,0)"><text x="8" dy="0.35em" transform="rotate(180) translate(-16)" text-anchor="end" style="font-family: Arial, sans-serif; font-size: 10px; fill: black; font-weight: bold;">Talk Show (2)</text></g></g></g></svg>